<svg xmlns="http://www.w3.org/2000/svg" viewBox="0 0 720 360" role="img" aria-label="South India state boundary base map">
<style>
.land { fill:#f9fbfa; }
.state { fill:#f6f8f7; stroke:#c9d4d0; stroke-width:1.1; stroke-linejoin:round; }
.state-label { fill:#7a8790; font:600 10px Inter,Arial,sans-serif; letter-spacing:.04em; }
</style>
<rect width="720" height="360" fill="#eaf3f9"/>
<path d="M0 0H720V360H0Z" fill="#edf5fa"/>
<g><path d="M 158.0,215.6 L 158.0,216.3 L 158.9,215.8 L 158.0,215.6 Z M 158.2,213.2 L 157.0,214.8 L 157.5,215.6 L 160.0,215.0 L 158.2,213.2 Z M 585.2,211.4 L 583.8,210.9 L 584.4,211.7 L 585.2,211.4 Z M 586.6,210.9 L 585.5,210.5 L 585.5,210.9 L 586.6,210.9 Z M 596.1,212.2 L 597.3,210.0 L 589.3,209.8 L 588.3,212.2 L 596.1,212.2 Z M 586.2,208.7 L 586.0,208.2 L 585.9,208.8 L 586.2,208.7 Z M 597.4,209.9 L 600.7,204.5 L 597.9,203.5 L 597.1,204.6 L 595.0,204.3 L 592.4,205.0 L 592.7,205.7 L 591.5,206.1 L 588.7,203.5 L 592.5,203.0 L 591.2,202.1 L 585.4,204.7 L 588.4,205.0 L 590.5,206.8 L 587.4,207.4 L 588.2,206.1 L 585.9,206.1 L 583.6,207.9 L 587.3,207.5 L 588.1,209.0 L 591.5,209.3 L 593.3,208.1 L 593.1,209.7 L 596.6,209.0 L 597.4,209.9 Z M 593.6,207.7 L 596.2,207.0 L 595.0,208.7 L 593.6,207.7 Z M 595.5,201.3 L 596.7,201.7 L 597.1,201.4 L 595.5,201.3 Z M 582.3,209.7 L 580.2,210.5 L 583.3,210.8 L 582.3,209.7 Z M 580.2,207.6 L 575.9,207.8 L 576.2,208.9 L 581.9,209.1 L 580.2,207.6 Z M 584.9,203.9 L 582.4,203.9 L 581.4,204.4 L 583.9,204.8 L 584.9,203.9 Z M 580.4,205.1 L 581.3,201.5 L 578.7,201.1 L 579.3,206.9 L 583.3,205.7 L 580.4,205.1 Z M 585.9,200.9 L 582.3,201.9 L 581.9,202.9 L 588.3,202.9 L 585.9,200.9 Z M 597.6,253.0 L 597.2,252.9 L 597.3,253.0 L 597.6,253.0 Z M 600.8,255.2 L 601.9,247.8 L 598.1,247.3 L 596.3,248.3 L 591.1,247.4 L 592.9,249.3 L 588.3,248.9 L 590.1,249.6 L 588.8,250.7 L 592.7,251.4 L 592.1,252.4 L 595.5,251.6 L 594.9,252.5 L 599.5,252.7 L 597.4,254.0 L 600.8,255.2 Z M 590.4,251.1 L 590.3,251.0 L 590.3,251.1 L 590.4,251.1 Z M 588.4,250.4 L 588.6,250.3 L 588.5,250.3 L 588.4,250.4 Z M 602.4,202.2 L 604.2,200.6 L 601.7,200.2 L 600.7,201.9 L 602.4,202.2 Z M 855.8,-3.0 L 855.8,-3.0 L 855.8,-3.0 L 855.8,-3.0 Z M 855.7,-3.0 L 855.7,-3.0 L 855.6,-3.0 L 855.7,-3.0 Z M 855.8,-3.1 L 855.8,-3.1 L 855.8,-3.1 L 855.8,-3.1 Z M 855.5,-3.0 L 855.7,-3.3 L 855.7,-3.4 L 855.5,-3.0 Z M 858.3,-4.7 L 856.7,-4.3 L 856.9,-4.1 L 857.4,-4.0 L 858.3,-4.7 Z M 856.9,-5.3 L 857.6,-4.8 L 857.6,-5.0 L 856.9,-5.3 Z M 846.3,-11.7 L 842.0,-10.7 L 842.8,-10.0 L 850.3,-8.8 L 854.8,-9.8 L 854.3,-11.2 L 850.6,-10.0 L 845.2,-10.5 L 846.3,-11.7 Z" class="state" data-state="IN-PY"/><path d="M 564.9,331.9 L 564.6,332.1 L 565.3,331.9 L 564.9,331.9 Z M 564.4,331.8 L 564.5,331.8 L 564.6,331.7 L 564.4,331.8 Z M 563.6,331.7 L 563.9,331.7 L 563.8,331.6 L 563.6,331.7 Z M 563.8,331.5 L 564.0,331.5 L 564.0,331.5 L 563.8,331.5 Z M 562.6,331.2 L 563.0,331.4 L 563.0,331.3 L 562.9,331.2 L 562.6,331.2 Z M 562.4,331.0 L 562.4,331.2 L 562.4,331.2 L 562.4,331.0 Z M 561.0,331.0 L 561.0,330.9 L 561.0,331.0 L 561.0,331.0 Z M 561.1,330.9 L 561.2,330.9 L 561.2,330.9 L 561.1,330.9 Z M 528.6,326.8 L 528.8,327.0 L 528.9,326.8 L 528.6,326.8 Z M 530.6,326.8 L 530.8,326.9 L 530.8,326.8 L 530.6,326.8 Z M 529.2,326.6 L 529.6,326.9 L 529.7,326.6 L 529.2,326.6 Z M 536.9,326.2 L 534.0,325.9 L 532.3,326.7 L 535.3,327.3 L 536.9,326.2 Z M 539.0,326.7 L 537.8,326.5 L 538.6,326.9 L 539.0,326.7 Z M 528.3,326.0 L 528.6,326.2 L 528.6,326.0 L 528.3,326.0 Z M 483.6,329.1 L 483.9,329.2 L 483.6,329.1 L 483.6,329.1 Z M 505.1,329.1 L 505.0,329.1 L 505.1,329.1 L 505.1,329.1 Z M 511.2,329.3 L 511.1,329.3 L 511.2,329.3 L 511.2,329.3 Z M 510.9,329.3 L 511.3,329.2 L 510.9,329.1 L 510.9,329.3 Z M 523.3,328.9 L 521.4,328.1 L 520.1,328.6 L 523.3,328.9 Z M 528.6,327.9 L 528.7,328.0 L 528.8,327.9 L 528.6,327.9 Z M 527.0,327.9 L 526.9,327.9 L 527.0,327.9 L 527.0,327.9 Z M 528.1,327.8 L 526.8,327.8 L 526.9,327.8 L 527.5,327.9 L 528.1,327.8 Z M 531.2,328.1 L 529.4,327.4 L 527.0,327.5 L 531.2,328.1 Z M 529.4,326.9 L 529.3,327.1 L 529.6,327.1 L 529.4,326.9 Z M 560.8,330.9 L 560.8,330.8 L 560.6,330.8 L 560.8,330.9 Z M 560.1,330.7 L 560.0,330.6 L 560.0,330.7 L 560.1,330.7 Z M 559.9,330.5 L 560.1,330.4 L 560.0,330.4 L 559.9,330.5 Z M 596.2,207.0 L 593.6,207.7 L 595.0,208.7 L 596.2,207.0 Z M 341.2,377.0 L 341.2,377.0 L 341.2,377.0 L 341.2,377.0 Z M 341.8,377.0 L 341.7,377.0 L 341.7,377.0 L 341.8,377.0 Z M 340.5,376.9 L 340.5,376.8 L 340.5,376.9 L 340.5,376.9 Z M 340.0,376.7 L 340.4,376.8 L 340.5,376.8 L 340.0,376.7 Z M 339.6,376.2 L 339.6,376.2 L 339.6,376.2 L 339.6,376.2 Z M 339.5,376.2 L 339.6,376.2 L 339.6,376.1 L 339.5,376.2 Z M 339.6,376.2 L 339.6,376.2 L 339.6,376.2 L 339.6,376.2 Z M 339.6,376.1 L 339.6,376.1 L 339.6,376.1 L 339.6,376.1 Z M 339.5,376.1 L 339.6,376.1 L 339.6,376.1 L 339.5,376.1 Z M 334.3,374.9 L 334.4,374.9 L 334.4,374.9 L 334.3,374.9 Z M 333.6,374.8 L 333.7,374.8 L 333.9,374.8 L 333.6,374.8 Z M 333.7,374.7 L 333.7,374.7 L 333.8,374.7 L 333.7,374.7 Z M 333.3,374.7 L 332.9,374.5 L 332.8,374.6 L 333.1,374.7 L 333.3,374.7 Z M 331.9,374.1 L 331.9,374.0 L 331.9,374.1 L 331.9,374.1 Z M 439.5,340.1 L 439.4,340.1 L 439.4,340.2 L 439.5,340.1 Z M 437.2,339.7 L 437.1,339.7 L 437.2,339.7 L 437.2,339.7 Z M 437.7,339.8 L 437.2,339.5 L 437.3,339.8 L 437.7,339.8 Z M 461.9,333.3 L 462.2,333.6 L 462.5,333.4 L 461.9,333.3 Z M 471.2,333.0 L 471.0,332.4 L 470.1,332.9 L 471.2,333.0 Z M 482.9,330.5 L 483.0,330.7 L 483.1,330.5 L 482.9,330.5 Z M 488.9,330.6 L 489.0,330.6 L 489.1,330.6 L 488.9,330.6 Z M 486.3,330.6 L 486.7,330.6 L 486.6,330.5 L 486.3,330.6 Z M 488.8,330.4 L 488.7,330.5 L 488.8,330.5 L 488.8,330.4 Z M 483.3,330.4 L 483.2,330.4 L 483.2,330.4 L 483.3,330.4 Z M 496.3,330.3 L 496.4,330.3 L 496.5,330.3 L 496.3,330.3 Z M 495.8,330.3 L 495.9,330.3 L 495.7,330.3 L 495.8,330.3 Z M 495.4,330.3 L 495.3,330.3 L 495.4,330.3 L 495.4,330.3 Z M 495.4,330.3 L 496.1,330.0 L 495.7,330.0 L 495.4,330.3 Z M 496.5,329.9 L 496.6,329.9 L 496.6,329.7 L 496.5,329.9 Z M 503.7,329.4 L 508.2,329.2 L 508.5,329.1 L 503.7,329.4 Z M 342.0,376.9 L 342.0,377.0 L 342.0,376.9 L 342.0,376.9 Z M 342.0,376.8 L 341.9,376.9 L 342.0,376.8 L 342.0,376.8 Z M 428.5,346.6 L 428.4,346.6 L 428.4,346.6 L 428.5,346.6 Z M 432.8,345.1 L 432.4,344.8 L 432.5,345.1 L 432.8,345.1 Z M 432.8,344.7 L 433.2,345.0 L 433.4,344.9 L 432.8,344.7 Z M 434.6,343.5 L 434.7,343.2 L 434.1,343.2 L 434.6,343.5 Z M 433.9,342.9 L 434.4,342.7 L 433.8,342.7 L 433.9,342.9 Z M 438.8,340.2 L 439.1,340.2 L 439.2,340.1 L 438.8,340.2 Z M 466.8,332.7 L 466.8,332.9 L 466.9,332.7 L 466.8,332.7 Z M 597.3,210.0 L 596.6,209.0 L 593.1,209.7 L 593.3,208.1 L 591.5,209.3 L 588.1,209.0 L 587.3,207.5 L 583.6,207.9 L 585.9,206.1 L 588.2,206.1 L 587.4,207.4 L 590.5,206.8 L 588.4,205.0 L 586.0,205.1 L 585.8,204.1 L 591.2,202.1 L 592.5,203.0 L 588.7,203.5 L 591.5,206.1 L 597.9,203.5 L 600.7,204.5 L 601.7,200.2 L 604.2,200.6 L 621.9,188.4 L 631.3,184.0 L 643.3,167.4 L 643.9,160.0 L 652.8,143.4 L 650.7,137.5 L 644.8,132.1 L 642.0,136.3 L 631.5,134.8 L 625.2,135.5 L 625.5,132.8 L 617.1,133.1 L 621.9,135.3 L 614.3,136.4 L 614.4,138.2 L 610.4,138.8 L 613.3,139.9 L 610.8,141.5 L 603.0,143.2 L 597.5,143.2 L 595.7,144.3 L 592.5,143.2 L 589.7,144.5 L 596.0,146.6 L 592.4,148.2 L 590.1,146.9 L 586.6,147.5 L 587.6,146.5 L 584.7,146.5 L 584.5,144.2 L 579.3,145.4 L 575.6,144.7 L 573.9,145.9 L 569.3,145.1 L 569.5,142.3 L 559.1,141.7 L 553.6,143.7 L 560.1,143.9 L 556.3,145.6 L 558.6,147.2 L 560.9,146.8 L 559.4,149.0 L 552.8,149.0 L 554.2,149.5 L 550.9,150.1 L 551.4,151.9 L 549.4,151.3 L 545.9,152.8 L 546.4,151.8 L 543.5,152.0 L 540.8,150.3 L 539.5,151.3 L 538.4,149.8 L 535.9,150.8 L 538.2,151.2 L 538.4,152.8 L 532.9,153.7 L 534.1,155.4 L 531.1,156.6 L 526.1,155.7 L 522.6,156.3 L 513.8,153.6 L 506.5,153.9 L 504.4,155.4 L 507.0,155.4 L 508.2,155.9 L 507.8,156.1 L 503.1,156.0 L 503.1,153.1 L 495.1,153.5 L 488.8,155.0 L 484.9,154.4 L 484.0,156.8 L 478.9,156.1 L 475.3,157.9 L 479.0,160.6 L 476.6,160.6 L 472.4,167.3 L 468.6,168.5 L 468.6,171.0 L 466.4,171.4 L 467.4,170.5 L 461.7,169.1 L 464.9,170.5 L 463.2,170.2 L 462.8,172.1 L 459.6,172.1 L 459.2,174.4 L 449.6,174.3 L 439.3,170.8 L 433.1,171.6 L 432.6,170.7 L 436.2,169.7 L 435.2,168.3 L 425.2,167.3 L 416.9,164.1 L 413.9,164.0 L 410.9,166.2 L 406.5,163.9 L 405.3,165.4 L 403.1,165.1 L 405.4,163.4 L 404.2,162.4 L 394.6,163.3 L 390.1,164.6 L 391.7,166.6 L 384.7,172.2 L 370.2,172.5 L 368.3,177.7 L 369.0,179.3 L 372.0,179.6 L 368.6,181.0 L 373.8,180.6 L 372.0,185.9 L 365.3,189.4 L 358.7,189.9 L 357.1,191.3 L 357.1,193.1 L 359.2,193.6 L 371.4,193.2 L 383.4,194.3 L 388.3,197.2 L 380.2,201.8 L 378.1,204.7 L 359.5,205.0 L 358.6,207.6 L 356.0,207.0 L 356.6,209.4 L 352.5,213.3 L 349.1,212.1 L 343.0,212.8 L 338.8,211.1 L 334.3,210.9 L 320.0,212.7 L 320.7,215.0 L 316.8,214.4 L 315.0,211.9 L 311.5,212.6 L 312.6,211.8 L 309.9,210.8 L 306.7,211.0 L 305.5,212.5 L 299.1,211.7 L 291.6,218.0 L 292.8,220.7 L 283.6,219.7 L 265.0,219.8 L 258.3,215.8 L 250.1,217.5 L 250.2,219.1 L 245.6,219.2 L 242.2,221.0 L 236.8,221.8 L 234.4,220.5 L 229.8,221.8 L 231.1,226.4 L 235.0,225.8 L 239.2,227.1 L 240.9,226.5 L 248.8,227.6 L 253.1,230.0 L 259.0,230.8 L 258.0,231.6 L 262.1,231.3 L 261.8,234.0 L 252.3,236.7 L 250.8,238.5 L 270.4,238.8 L 278.3,236.7 L 281.3,237.7 L 277.7,240.6 L 282.7,241.4 L 282.5,244.9 L 288.1,245.1 L 284.6,246.2 L 277.7,246.3 L 273.5,250.6 L 290.9,253.2 L 293.0,255.6 L 298.4,256.1 L 299.0,257.2 L 294.9,261.3 L 296.4,263.7 L 289.0,264.4 L 292.0,265.7 L 292.4,268.3 L 289.6,273.5 L 293.0,276.0 L 291.1,278.9 L 293.0,279.7 L 295.5,279.1 L 299.5,282.0 L 306.9,282.6 L 318.0,278.3 L 326.7,276.4 L 332.8,276.6 L 335.2,282.1 L 338.9,282.7 L 336.1,287.0 L 329.3,287.7 L 335.7,291.2 L 336.6,294.1 L 331.0,296.8 L 333.0,299.2 L 331.4,300.5 L 334.0,301.6 L 331.5,302.0 L 331.6,304.6 L 325.6,309.9 L 330.1,309.9 L 336.3,311.7 L 341.3,310.4 L 343.5,311.7 L 345.7,310.4 L 346.2,313.4 L 351.0,314.6 L 348.9,316.8 L 344.5,317.6 L 342.0,322.3 L 339.4,322.3 L 337.7,323.9 L 337.6,327.7 L 334.5,329.0 L 336.1,330.6 L 330.4,333.0 L 328.9,335.4 L 323.7,336.5 L 328.8,339.5 L 328.4,340.8 L 331.3,340.8 L 335.1,343.1 L 335.7,344.6 L 332.2,347.2 L 326.1,349.1 L 337.8,357.9 L 335.5,359.7 L 329.3,360.0 L 331.9,362.4 L 324.1,365.2 L 327.1,367.9 L 323.8,367.6 L 318.6,369.3 L 339.3,375.9 L 341.0,377.0 L 341.7,377.0 L 341.9,376.8 L 342.2,376.8 L 342.7,376.8 L 365.8,379.1 L 370.7,375.9 L 390.2,375.2 L 395.1,371.2 L 418.3,365.7 L 418.0,363.9 L 426.2,359.9 L 425.7,351.9 L 432.2,348.5 L 432.3,346.9 L 432.0,346.8 L 431.7,348.2 L 427.9,347.6 L 429.1,342.8 L 431.0,340.7 L 453.8,332.4 L 470.9,331.6 L 479.0,330.4 L 477.5,329.6 L 479.7,328.8 L 485.1,329.0 L 486.8,328.0 L 510.6,325.2 L 523.5,325.8 L 535.7,324.8 L 536.6,326.0 L 545.1,326.4 L 558.8,330.3 L 546.8,325.2 L 548.2,323.1 L 535.9,324.8 L 521.1,324.1 L 507.7,319.1 L 503.8,315.5 L 512.3,306.5 L 526.5,299.1 L 530.2,295.6 L 541.6,290.7 L 537.8,288.4 L 537.8,285.9 L 544.8,280.7 L 554.3,278.2 L 593.3,280.3 L 604.8,278.9 L 602.0,255.3 L 597.4,254.0 L 599.5,252.7 L 594.9,252.5 L 595.5,251.6 L 592.1,252.4 L 592.8,251.4 L 588.8,250.7 L 590.0,249.4 L 588.2,249.5 L 592.9,249.3 L 591.1,247.4 L 596.3,248.3 L 600.7,247.4 L 602.2,248.3 L 601.0,231.7 L 592.2,222.4 L 596.1,212.2 L 587.6,211.9 L 590.1,209.5 L 593.3,210.5 L 597.3,210.0 Z M 583.8,210.9 L 585.2,211.4 L 584.4,211.7 L 583.8,210.9 Z M 585.5,210.5 L 586.6,210.9 L 585.5,210.9 L 585.5,210.5 Z M 586.0,208.2 L 586.2,208.7 L 585.9,208.8 L 586.0,208.2 Z M 596.7,201.7 L 595.5,201.3 L 597.1,201.4 L 596.7,201.7 Z M 580.2,210.5 L 582.3,209.7 L 583.3,210.8 L 580.2,210.5 Z M 575.9,207.8 L 580.2,207.6 L 581.9,209.1 L 576.2,208.9 L 575.9,207.8 Z M 584.9,203.9 L 583.9,204.8 L 581.4,204.4 L 582.4,203.9 L 584.9,203.9 Z M 581.3,201.5 L 580.4,205.1 L 583.3,205.7 L 579.3,206.9 L 578.7,201.1 L 581.3,201.5 Z M 585.9,200.9 L 588.3,202.9 L 581.9,202.9 L 582.3,201.9 L 585.9,200.9 Z M 597.2,252.9 L 597.6,253.0 L 597.3,253.0 L 597.2,252.9 Z M 590.3,251.0 L 590.4,251.1 L 590.3,251.1 L 590.3,251.0 Z M 588.6,250.3 L 588.4,250.4 L 588.5,250.3 L 588.6,250.3 Z" class="state" data-state="IN-TN"/><path d="M 365.3,-80.6 L 370.8,-80.2 L 366.5,-76.3 L 370.0,-74.5 L 370.4,-72.1 L 365.0,-70.4 L 365.5,-69.1 L 375.3,-67.4 L 376.0,-66.1 L 375.4,-65.3 L 373.7,-66.0 L 372.8,-65.7 L 372.2,-63.2 L 368.9,-63.4 L 370.2,-61.8 L 367.9,-61.9 L 365.6,-59.4 L 362.9,-59.8 L 360.7,-57.9 L 367.1,-57.0 L 367.1,-56.2 L 355.1,-53.8 L 354.2,-48.8 L 360.7,-46.9 L 362.9,-48.4 L 365.2,-47.3 L 369.7,-47.9 L 370.0,-46.5 L 379.4,-45.5 L 379.4,-44.0 L 375.7,-44.2 L 376.2,-45.3 L 371.8,-42.6 L 367.8,-43.0 L 367.8,-41.9 L 361.3,-41.9 L 363.9,-40.8 L 363.1,-39.2 L 358.3,-38.5 L 355.2,-39.3 L 353.6,-35.6 L 355.7,-35.1 L 347.7,-32.5 L 350.1,-31.9 L 346.9,-31.3 L 346.0,-29.6 L 356.3,-27.5 L 360.3,-23.1 L 355.3,-18.6 L 357.6,-13.0 L 353.8,-13.0 L 352.4,-10.0 L 357.3,-9.7 L 356.9,-8.4 L 351.7,-7.6 L 353.3,-6.4 L 357.5,-6.8 L 355.2,-5.3 L 356.6,-4.4 L 349.0,-3.1 L 351.7,-1.0 L 347.4,-0.6 L 346.5,0.5 L 339.3,0.2 L 338.8,1.0 L 332.8,1.2 L 338.2,4.1 L 344.5,5.2 L 351.9,6.0 L 358.9,5.2 L 369.8,7.1 L 370.1,9.3 L 366.5,8.9 L 363.8,10.5 L 360.5,10.1 L 359.0,11.0 L 361.6,12.4 L 358.6,15.2 L 359.0,17.1 L 361.4,17.6 L 359.4,20.8 L 361.4,25.8 L 371.5,26.2 L 376.2,27.6 L 383.1,27.2 L 391.4,28.2 L 399.9,26.7 L 412.3,28.7 L 414.7,26.7 L 420.0,29.7 L 425.2,29.9 L 425.4,29.0 L 429.5,28.9 L 430.4,26.6 L 437.3,25.4 L 438.3,21.3 L 443.6,22.0 L 453.4,19.1 L 468.2,20.6 L 475.9,18.6 L 487.1,22.1 L 492.2,21.5 L 497.9,19.0 L 497.2,16.0 L 501.1,16.0 L 503.6,18.6 L 506.3,17.8 L 504.6,14.2 L 515.3,11.7 L 530.4,13.1 L 536.6,12.3 L 538.4,7.5 L 535.9,6.4 L 536.0,2.4 L 538.3,1.8 L 536.4,0.5 L 540.7,-3.0 L 557.3,-3.6 L 560.3,-5.4 L 588.6,-8.6 L 593.9,-10.4 L 598.3,-8.6 L 604.5,-8.9 L 607.9,-6.0 L 612.0,-6.1 L 622.8,-11.0 L 624.4,-13.6 L 622.0,-15.9 L 617.0,-16.4 L 618.9,-18.7 L 621.3,-18.8 L 622.8,-21.2 L 631.6,-22.1 L 637.4,-24.5 L 638.9,-23.0 L 647.3,-22.3 L 650.2,-17.1 L 655.6,-15.9 L 656.3,-14.3 L 659.1,-15.7 L 656.1,-15.8 L 656.6,-16.4 L 664.9,-14.4 L 664.9,-13.3 L 675.8,-12.1 L 680.2,-13.2 L 675.0,-15.0 L 679.1,-18.8 L 672.1,-20.8 L 668.5,-20.5 L 667.9,-19.2 L 654.5,-21.4 L 659.0,-23.2 L 656.8,-25.6 L 659.2,-26.6 L 665.0,-23.9 L 669.1,-25.6 L 670.0,-28.0 L 676.8,-29.4 L 686.1,-27.1 L 684.4,-25.6 L 693.1,-26.1 L 704.1,-24.3 L 707.4,-25.7 L 707.6,-29.7 L 712.2,-29.6 L 711.7,-32.4 L 723.2,-31.1 L 725.6,-32.6 L 737.9,-32.9 L 739.6,-37.1 L 748.2,-36.8 L 753.2,-39.4 L 752.1,-40.9 L 735.2,-43.4 L 736.4,-44.3 L 733.1,-46.2 L 730.0,-45.2 L 722.0,-45.9 L 716.9,-49.4 L 705.1,-49.6 L 705.8,-51.0 L 710.9,-51.2 L 708.2,-55.6 L 717.3,-57.6 L 719.1,-56.2 L 726.0,-55.5 L 730.7,-57.2 L 728.8,-58.4 L 724.8,-57.7 L 720.8,-58.4 L 714.8,-71.4 L 717.8,-75.5 L 706.3,-73.8 L 704.9,-76.7 L 706.9,-77.1 L 703.2,-78.4 L 699.3,-75.2 L 692.9,-75.5 L 693.0,-77.5 L 698.8,-79.1 L 694.2,-81.4 L 691.2,-85.1 L 692.7,-86.1 L 689.0,-86.5 L 682.7,-91.0 L 670.1,-95.4 L 663.9,-95.9 L 652.8,-94.3 L 645.8,-100.0 L 639.0,-99.3 L 637.4,-98.1 L 633.4,-99.0 L 629.3,-98.1 L 619.1,-102.2 L 613.5,-102.3 L 609.1,-103.9 L 608.5,-104.8 L 613.2,-106.5 L 611.0,-114.0 L 609.7,-114.7 L 603.9,-114.3 L 602.6,-117.1 L 611.6,-120.1 L 609.4,-122.7 L 613.6,-126.1 L 614.9,-130.5 L 611.4,-133.7 L 591.8,-139.8 L 578.9,-138.3 L 575.6,-135.3 L 569.8,-137.5 L 562.8,-135.0 L 551.9,-138.4 L 546.6,-138.0 L 545.8,-139.3 L 539.3,-140.3 L 539.0,-136.6 L 535.3,-134.7 L 537.3,-133.6 L 533.9,-133.2 L 524.4,-136.4 L 508.2,-137.3 L 511.5,-138.7 L 509.7,-142.0 L 499.1,-142.1 L 497.9,-146.8 L 487.6,-147.7 L 485.4,-147.0 L 468.2,-149.6 L 461.9,-148.2 L 460.0,-149.3 L 454.9,-149.3 L 450.6,-152.1 L 445.6,-152.3 L 445.6,-153.6 L 443.0,-153.6 L 440.9,-150.7 L 446.0,-150.2 L 448.9,-147.7 L 446.7,-144.6 L 439.8,-143.7 L 438.4,-142.4 L 442.9,-139.8 L 442.7,-138.1 L 439.6,-137.4 L 442.7,-133.0 L 429.6,-131.1 L 429.1,-128.2 L 431.4,-126.7 L 429.5,-123.2 L 415.7,-123.5 L 415.8,-124.7 L 405.8,-127.9 L 397.4,-126.2 L 401.9,-124.6 L 398.2,-124.0 L 395.8,-121.0 L 394.4,-118.5 L 396.0,-116.5 L 391.9,-117.2 L 390.9,-114.8 L 387.2,-115.3 L 387.0,-113.9 L 387.9,-111.6 L 393.1,-111.5 L 392.8,-110.1 L 396.9,-110.2 L 395.3,-108.4 L 399.6,-108.2 L 406.1,-104.8 L 395.0,-103.7 L 389.6,-98.2 L 386.1,-99.0 L 383.7,-97.5 L 384.5,-92.6 L 376.0,-91.4 L 375.2,-92.5 L 369.9,-92.2 L 370.6,-89.0 L 365.0,-88.6 L 368.8,-87.6 L 362.8,-87.4 L 365.8,-86.4 L 362.1,-83.6 L 367.3,-81.8 L 365.3,-80.6 Z" class="state" data-state="IN-TG"/><path d="M 712.8,35.2 L 712.8,35.3 L 712.9,35.2 L 712.8,35.2 Z M 700.6,34.6 L 700.8,34.6 L 700.6,34.5 L 700.6,34.6 Z M 698.9,33.5 L 698.8,33.6 L 699.0,33.5 L 698.9,33.5 Z M 698.7,32.9 L 698.8,32.8 L 698.7,32.8 L 698.7,32.9 Z M 698.7,33.4 L 698.8,33.4 L 698.8,33.4 L 698.7,33.4 Z M 698.7,33.3 L 698.7,33.4 L 698.8,33.3 L 698.7,33.3 Z M 698.3,30.1 L 698.7,30.1 L 698.4,30.0 L 698.3,30.1 Z M 698.1,29.6 L 698.3,29.7 L 698.1,29.6 L 698.1,29.6 Z M 720.7,31.7 L 720.8,31.9 L 720.8,31.7 L 720.7,31.7 Z M 720.5,30.8 L 721.2,30.9 L 720.9,30.8 L 720.5,30.8 Z M 698.2,29.1 L 697.7,29.0 L 698.1,29.5 L 698.2,29.1 Z M 697.3,28.7 L 696.9,28.6 L 697.8,28.9 L 697.3,28.7 Z M 644.7,132.1 L 641.2,127.9 L 643.3,121.9 L 632.8,111.3 L 630.2,105.7 L 637.3,86.1 L 627.1,77.4 L 622.0,63.9 L 628.6,51.9 L 638.3,46.2 L 646.4,36.5 L 661.2,31.3 L 687.1,27.6 L 696.8,28.5 L 700.1,29.7 L 699.5,31.2 L 697.3,29.9 L 700.6,33.1 L 701.7,35.5 L 700.6,34.8 L 700.5,34.4 L 698.5,33.6 L 698.4,32.9 L 699.4,32.5 L 698.4,32.8 L 698.2,33.4 L 701.6,35.6 L 712.6,35.0 L 713.8,35.2 L 720.9,33.5 L 720.1,30.0 L 735.2,23.7 L 742.0,13.2 L 751.4,8.8 L 770.1,6.5 L 794.1,8.7 L 807.4,5.7 L 818.4,4.7 L 846.8,-1.9 L 855.1,-2.6 L 855.5,-7.3 L 860.5,-9.3 L 858.3,-11.2 L 860.5,-17.0 L 859.9,-20.7 L 856.4,-22.1 L 859.7,-19.8 L 859.4,-15.8 L 848.4,-16.9 L 848.4,-19.4 L 851.4,-20.3 L 855.7,-25.1 L 883.9,-35.2 L 947.6,-49.1 L 961.4,-55.2 L 968.0,-58.9 L 968.9,-61.1 L 988.0,-69.2 L 1041.8,-81.6 L 1043.8,-84.3 L 1065.1,-92.5 L 1105.3,-114.7 L 1107.2,-116.0 L 1100.6,-117.8 L 1101.5,-119.7 L 1097.4,-120.0 L 1097.0,-118.4 L 1089.6,-118.5 L 1092.7,-116.4 L 1096.1,-116.8 L 1097.4,-116.0 L 1092.0,-115.5 L 1090.2,-113.7 L 1087.3,-115.9 L 1081.5,-114.7 L 1077.3,-112.1 L 1071.7,-113.5 L 1074.9,-111.5 L 1072.0,-110.2 L 1073.4,-109.0 L 1071.4,-107.9 L 1067.3,-108.2 L 1069.2,-107.6 L 1068.7,-107.0 L 1065.4,-107.8 L 1066.9,-106.3 L 1062.6,-107.2 L 1065.9,-105.3 L 1062.4,-104.4 L 1063.8,-103.6 L 1045.2,-103.1 L 1042.5,-101.8 L 1037.8,-101.6 L 1032.3,-104.3 L 1017.4,-104.2 L 1012.7,-106.6 L 1007.3,-113.3 L 1002.4,-112.4 L 1006.6,-108.8 L 1003.2,-109.2 L 998.7,-112.6 L 1000.8,-113.5 L 997.7,-113.6 L 989.9,-119.9 L 985.6,-115.1 L 982.0,-116.2 L 980.8,-113.0 L 977.2,-113.4 L 978.4,-115.7 L 973.7,-116.7 L 975.2,-114.1 L 974.9,-112.9 L 971.8,-113.0 L 973.0,-110.5 L 966.7,-113.0 L 960.8,-113.4 L 960.4,-112.4 L 957.5,-112.5 L 959.9,-109.2 L 963.4,-110.8 L 961.9,-109.4 L 968.2,-106.9 L 967.3,-105.4 L 954.8,-103.4 L 953.4,-101.9 L 948.6,-102.4 L 947.4,-100.4 L 939.8,-102.9 L 931.5,-97.5 L 926.9,-96.6 L 925.6,-94.9 L 931.0,-94.5 L 928.6,-93.4 L 930.2,-92.0 L 935.3,-92.1 L 927.7,-88.1 L 929.9,-86.6 L 932.4,-86.9 L 933.5,-85.7 L 931.1,-84.6 L 927.8,-85.2 L 919.3,-83.8 L 914.8,-84.7 L 914.9,-86.6 L 905.3,-87.7 L 903.1,-86.9 L 904.9,-85.8 L 902.3,-82.9 L 888.8,-81.1 L 888.3,-78.2 L 883.1,-80.0 L 884.3,-81.2 L 882.5,-81.7 L 886.8,-83.7 L 877.9,-85.8 L 880.6,-87.7 L 876.3,-88.5 L 877.6,-90.5 L 872.3,-92.2 L 860.1,-86.5 L 862.3,-84.1 L 857.5,-82.2 L 862.7,-82.3 L 863.0,-80.9 L 858.1,-80.2 L 857.4,-77.6 L 854.7,-76.7 L 861.0,-74.2 L 857.6,-74.3 L 857.7,-70.0 L 854.4,-69.6 L 852.7,-70.6 L 849.6,-69.4 L 850.1,-67.3 L 842.0,-68.2 L 840.1,-69.9 L 826.0,-70.7 L 819.0,-67.5 L 803.1,-65.5 L 794.7,-62.1 L 792.1,-63.1 L 789.1,-62.5 L 783.5,-59.5 L 779.1,-60.2 L 770.6,-59.1 L 769.0,-60.2 L 760.9,-59.4 L 760.4,-58.3 L 747.3,-59.0 L 737.1,-61.1 L 729.7,-58.9 L 730.7,-57.2 L 726.0,-55.5 L 719.1,-56.2 L 717.3,-57.6 L 712.6,-56.8 L 708.2,-55.6 L 710.9,-51.2 L 705.8,-51.0 L 705.1,-49.6 L 716.9,-49.4 L 722.0,-45.9 L 730.0,-45.2 L 733.1,-46.2 L 736.4,-44.3 L 735.2,-43.4 L 752.1,-40.9 L 753.2,-39.4 L 748.2,-36.8 L 739.6,-37.1 L 737.9,-32.9 L 725.6,-32.6 L 723.2,-31.1 L 711.7,-32.4 L 712.2,-29.6 L 707.6,-29.7 L 707.4,-25.7 L 704.1,-24.3 L 693.1,-26.1 L 684.4,-25.6 L 686.1,-27.1 L 676.8,-29.4 L 670.0,-28.0 L 669.1,-25.6 L 665.0,-23.9 L 659.2,-26.6 L 656.8,-25.6 L 659.0,-23.2 L 654.5,-21.4 L 667.9,-19.2 L 668.5,-20.5 L 672.1,-20.8 L 679.1,-18.8 L 675.0,-15.0 L 680.2,-13.2 L 675.8,-12.1 L 664.9,-13.3 L 664.9,-14.4 L 656.6,-16.4 L 659.1,-15.7 L 656.3,-14.3 L 655.6,-15.9 L 650.2,-17.1 L 647.3,-22.3 L 638.9,-23.0 L 637.4,-24.5 L 631.6,-22.1 L 622.8,-21.2 L 621.3,-18.8 L 618.9,-18.7 L 617.0,-16.4 L 622.0,-15.9 L 624.4,-13.6 L 622.8,-11.0 L 613.3,-6.5 L 607.9,-6.0 L 604.5,-8.9 L 598.3,-8.6 L 593.9,-10.4 L 588.6,-8.6 L 560.3,-5.4 L 557.3,-3.6 L 540.7,-3.0 L 536.4,0.5 L 538.3,1.8 L 536.0,2.4 L 535.9,6.4 L 538.4,7.5 L 536.6,12.3 L 530.4,13.1 L 515.3,11.7 L 504.6,14.2 L 506.3,17.8 L 503.6,18.6 L 501.1,16.0 L 497.2,16.0 L 497.9,19.0 L 492.2,21.5 L 487.1,22.1 L 475.9,18.6 L 468.2,20.6 L 453.4,19.1 L 443.6,22.0 L 438.3,21.3 L 437.3,25.4 L 430.4,26.6 L 429.5,28.9 L 425.4,29.0 L 425.2,29.9 L 420.0,29.7 L 414.7,26.7 L 412.3,28.7 L 399.9,26.7 L 391.2,28.2 L 334.2,24.1 L 319.1,25.7 L 312.0,28.8 L 311.2,29.8 L 315.3,30.3 L 313.6,34.6 L 316.8,34.8 L 316.7,36.2 L 321.8,37.5 L 321.1,39.1 L 317.1,37.8 L 311.7,38.9 L 311.7,44.9 L 305.9,45.1 L 311.9,47.9 L 315.1,52.7 L 320.2,52.5 L 320.7,54.2 L 325.7,55.4 L 321.4,57.3 L 323.8,57.4 L 326.0,59.8 L 322.5,60.8 L 324.7,62.0 L 317.1,67.2 L 313.1,67.1 L 313.7,66.0 L 307.1,66.8 L 295.9,66.1 L 291.7,63.9 L 288.0,63.2 L 285.6,64.0 L 287.0,66.6 L 284.6,68.6 L 290.9,69.5 L 294.9,68.9 L 295.2,70.3 L 292.7,72.5 L 293.6,76.1 L 286.2,77.1 L 288.3,79.1 L 284.4,85.4 L 295.0,91.2 L 306.0,90.7 L 302.9,92.2 L 302.7,94.5 L 299.9,93.6 L 296.7,94.7 L 296.7,96.9 L 304.1,99.3 L 300.8,100.2 L 302.4,101.5 L 314.0,101.5 L 318.9,102.7 L 322.9,97.2 L 333.1,98.2 L 338.0,97.2 L 337.7,99.8 L 346.0,100.1 L 345.5,102.0 L 349.0,103.6 L 351.5,102.3 L 347.4,98.7 L 350.4,97.3 L 354.5,98.2 L 354.9,99.9 L 359.8,100.0 L 361.8,104.2 L 360.4,105.4 L 349.1,104.7 L 347.5,106.4 L 344.7,106.6 L 344.3,107.8 L 349.8,107.2 L 342.8,111.1 L 348.7,111.7 L 347.8,113.6 L 353.6,113.6 L 353.4,114.9 L 351.0,114.9 L 353.3,116.3 L 349.6,117.5 L 349.5,116.7 L 344.3,116.3 L 346.8,114.6 L 344.5,114.4 L 345.7,112.9 L 341.7,111.1 L 323.9,112.4 L 321.7,110.4 L 311.4,109.7 L 311.0,104.5 L 303.2,103.6 L 302.6,104.7 L 297.7,104.9 L 296.8,106.3 L 300.9,106.3 L 306.3,109.3 L 301.6,110.1 L 301.5,111.1 L 308.5,112.9 L 307.9,114.2 L 312.9,115.5 L 313.4,116.7 L 310.9,116.9 L 306.3,120.3 L 308.2,123.8 L 310.3,124.3 L 311.1,122.4 L 315.2,124.0 L 317.4,124.1 L 317.9,123.0 L 326.4,123.2 L 325.9,120.2 L 321.8,119.0 L 325.9,118.6 L 325.2,116.7 L 327.6,115.9 L 327.2,118.4 L 329.2,118.7 L 332.8,116.8 L 335.0,119.4 L 340.6,118.5 L 342.0,120.0 L 345.9,119.1 L 353.1,119.6 L 352.0,121.5 L 356.4,121.2 L 355.4,126.8 L 359.2,126.5 L 358.5,125.3 L 362.9,126.3 L 362.6,123.6 L 366.3,125.0 L 370.3,123.7 L 373.4,124.4 L 374.6,123.8 L 372.1,123.2 L 375.6,122.2 L 378.5,122.1 L 377.7,123.3 L 380.9,122.9 L 382.4,124.1 L 382.6,121.5 L 389.0,120.7 L 389.0,119.5 L 394.7,118.4 L 392.2,116.3 L 393.6,115.0 L 400.7,115.2 L 403.9,116.8 L 408.1,114.3 L 410.1,114.5 L 409.9,117.1 L 406.2,117.6 L 406.6,120.3 L 411.5,118.2 L 416.2,118.7 L 416.5,117.2 L 419.9,118.7 L 423.2,118.7 L 424.5,122.1 L 420.8,124.1 L 423.9,125.3 L 423.1,126.3 L 418.5,126.1 L 418.2,127.1 L 420.4,128.6 L 428.7,128.0 L 428.7,129.0 L 432.4,129.2 L 431.3,132.1 L 435.7,130.5 L 438.1,131.3 L 452.7,131.0 L 449.0,141.2 L 453.5,142.1 L 450.2,142.6 L 452.7,143.3 L 456.7,142.7 L 457.1,143.6 L 461.1,143.0 L 460.7,143.9 L 466.2,145.5 L 469.6,143.5 L 471.8,144.9 L 470.9,147.9 L 468.0,148.5 L 471.1,150.0 L 464.6,151.6 L 466.8,152.7 L 463.8,153.4 L 464.3,154.7 L 459.0,155.6 L 459.5,158.6 L 456.2,158.4 L 453.7,160.0 L 459.4,161.8 L 459.2,163.5 L 457.3,161.5 L 451.4,161.7 L 447.8,160.2 L 443.6,163.9 L 437.4,163.8 L 436.2,169.7 L 432.7,170.6 L 432.1,171.4 L 439.3,170.8 L 449.6,174.3 L 459.3,174.4 L 459.6,172.1 L 462.8,172.1 L 463.2,170.2 L 464.9,170.5 L 461.7,169.1 L 467.4,170.5 L 466.4,171.4 L 468.6,171.0 L 468.6,168.5 L 472.4,167.3 L 476.6,160.6 L 479.0,160.6 L 475.3,157.9 L 478.9,156.1 L 484.0,156.8 L 484.9,154.4 L 488.8,155.0 L 495.1,153.5 L 503.1,153.1 L 503.1,156.0 L 507.8,156.1 L 504.4,155.4 L 506.5,153.9 L 513.8,153.6 L 522.6,156.3 L 526.1,155.7 L 531.1,156.6 L 534.1,155.4 L 532.9,153.7 L 538.4,152.8 L 538.2,151.2 L 535.9,150.8 L 538.4,149.8 L 539.5,151.3 L 540.8,150.3 L 543.5,152.0 L 546.4,151.8 L 545.9,152.8 L 549.4,151.3 L 551.4,151.9 L 550.9,150.1 L 554.2,149.5 L 552.8,149.0 L 559.4,149.0 L 560.9,146.8 L 558.6,147.2 L 556.3,145.6 L 560.1,143.9 L 553.6,143.7 L 559.1,141.7 L 569.5,142.3 L 569.3,145.1 L 573.9,145.9 L 575.6,144.7 L 579.3,145.4 L 584.5,144.2 L 584.7,146.5 L 587.6,146.5 L 586.6,147.5 L 590.1,146.9 L 592.4,148.2 L 596.0,146.6 L 589.7,144.5 L 592.5,143.2 L 595.7,144.3 L 597.5,143.2 L 603.0,143.2 L 610.8,141.5 L 613.3,139.9 L 610.4,138.8 L 614.4,138.2 L 614.3,136.4 L 621.9,135.3 L 617.1,133.1 L 625.5,132.8 L 625.2,135.5 L 631.5,134.8 L 642.0,136.3 L 644.7,132.1 Z M 846.3,-11.7 L 845.2,-10.5 L 850.6,-10.0 L 854.3,-11.2 L 854.8,-9.8 L 850.3,-8.8 L 842.8,-10.0 L 842.0,-10.7 L 846.3,-11.7 Z" class="state" data-state="IN-AP"/><path d="M 9.1,37.2 L 16.9,38.1 L 18.7,36.8 L 21.1,38.2 L 23.0,37.4 L 25.8,37.9 L 25.1,39.3 L 27.2,39.8 L 25.2,42.0 L 29.1,43.6 L 25.8,45.4 L 28.4,49.9 L 33.2,51.0 L 34.6,54.2 L 25.9,55.9 L 32.6,59.1 L 28.0,63.1 L 30.5,65.6 L 26.1,67.6 L 26.0,69.4 L 24.3,69.0 L 20.7,70.9 L 16.8,69.4 L 16.7,71.5 L 12.8,70.9 L 8.8,72.0 L 12.9,74.7 L 12.8,76.3 L 9.6,76.3 L 20.8,80.1 L 24.1,78.8 L 27.1,80.1 L 31.9,89.0 L 36.6,89.6 L 40.6,93.7 L 53.0,113.1 L 58.6,114.8 L 62.7,118.5 L 68.9,128.9 L 71.8,141.9 L 87.1,166.7 L 90.8,168.6 L 103.2,166.9 L 101.1,169.3 L 104.0,169.7 L 103.0,170.3 L 108.0,170.1 L 107.7,172.5 L 111.6,172.2 L 111.6,170.8 L 118.5,171.8 L 117.0,173.5 L 119.4,174.6 L 123.6,174.2 L 125.5,176.9 L 131.2,174.6 L 136.4,175.8 L 130.8,176.8 L 131.0,178.3 L 137.0,180.0 L 137.5,181.6 L 142.1,179.9 L 145.8,180.1 L 145.4,181.9 L 140.5,181.9 L 141.2,184.5 L 146.3,185.7 L 145.1,186.9 L 147.3,188.6 L 145.4,189.5 L 152.7,189.5 L 157.6,193.5 L 163.8,195.9 L 168.3,195.8 L 170.9,198.1 L 175.2,197.6 L 176.4,199.3 L 185.4,198.9 L 185.3,200.8 L 191.2,204.3 L 206.0,205.6 L 217.3,203.5 L 218.1,209.2 L 225.3,208.3 L 228.7,211.1 L 234.5,210.9 L 240.7,214.2 L 248.3,213.3 L 248.6,217.3 L 252.8,217.6 L 258.3,215.8 L 262.3,217.2 L 263.3,219.5 L 268.8,220.2 L 283.6,219.7 L 293.5,220.6 L 291.6,218.0 L 298.3,212.2 L 305.5,212.5 L 306.8,211.0 L 311.6,211.3 L 312.2,212.9 L 315.4,212.0 L 316.8,214.4 L 320.7,215.0 L 320.0,212.7 L 334.3,210.9 L 338.8,211.1 L 343.0,212.8 L 349.1,212.1 L 352.5,213.3 L 356.6,209.4 L 356.0,207.0 L 358.6,207.6 L 359.4,205.0 L 378.1,204.7 L 381.5,200.9 L 388.5,197.4 L 383.4,194.3 L 357.1,193.1 L 357.8,190.3 L 365.3,189.4 L 372.0,185.9 L 373.8,180.6 L 368.6,181.0 L 372.0,179.6 L 369.0,179.3 L 368.3,177.7 L 370.2,172.5 L 384.7,172.2 L 391.7,166.6 L 390.1,164.6 L 394.6,163.3 L 404.2,162.4 L 405.4,163.3 L 403.3,165.2 L 405.3,165.4 L 406.5,163.9 L 412.4,166.2 L 413.9,164.0 L 416.9,164.1 L 425.2,167.3 L 435.2,168.3 L 437.4,163.8 L 443.6,163.9 L 448.0,160.2 L 451.4,161.7 L 457.3,161.5 L 459.2,163.5 L 459.4,161.8 L 453.7,160.0 L 456.2,158.4 L 459.5,158.6 L 459.0,155.6 L 464.3,154.7 L 463.8,153.4 L 466.8,152.7 L 464.6,151.6 L 471.1,150.0 L 468.0,148.5 L 470.9,147.9 L 471.8,144.9 L 469.6,143.5 L 466.2,145.5 L 460.7,143.9 L 461.1,143.0 L 457.1,143.6 L 456.7,142.7 L 452.7,143.3 L 450.2,142.6 L 453.5,142.1 L 449.0,141.2 L 452.8,131.1 L 438.1,131.3 L 435.7,130.5 L 431.3,132.1 L 432.4,129.2 L 428.7,129.0 L 428.7,128.0 L 420.4,128.6 L 418.5,126.1 L 423.1,126.3 L 423.9,125.3 L 420.8,124.1 L 424.4,122.1 L 424.1,119.5 L 416.5,117.2 L 416.2,118.7 L 411.5,118.2 L 406.6,120.3 L 406.2,117.6 L 410.1,116.9 L 408.6,114.3 L 403.9,116.8 L 400.7,115.2 L 393.6,115.0 L 392.2,116.3 L 394.7,118.4 L 389.0,119.5 L 389.0,120.7 L 382.6,121.5 L 382.4,124.1 L 380.9,122.9 L 377.7,123.3 L 378.5,122.1 L 372.5,122.9 L 374.6,123.9 L 373.1,124.4 L 370.3,123.7 L 366.2,125.0 L 362.8,123.6 L 362.6,126.4 L 358.5,125.3 L 359.2,126.5 L 355.4,126.8 L 356.4,121.2 L 352.0,121.5 L 353.1,119.6 L 345.9,119.1 L 342.0,120.0 L 340.6,118.5 L 335.0,119.4 L 332.8,116.8 L 329.2,118.7 L 327.2,118.4 L 327.6,115.9 L 325.2,116.7 L 325.9,118.6 L 321.8,119.0 L 325.9,120.2 L 326.4,123.2 L 317.9,123.0 L 317.4,124.1 L 315.2,124.0 L 311.1,122.4 L 310.3,124.3 L 308.4,123.9 L 306.3,120.3 L 310.9,116.9 L 313.4,116.7 L 312.9,115.5 L 307.9,114.2 L 308.5,112.9 L 301.5,111.1 L 301.6,110.1 L 306.3,109.3 L 300.9,106.3 L 296.8,106.3 L 297.7,104.9 L 302.6,104.7 L 303.2,103.6 L 311.0,104.5 L 311.4,109.7 L 321.7,110.4 L 323.9,112.4 L 341.7,111.1 L 345.7,112.9 L 344.5,114.4 L 346.8,114.6 L 344.3,116.3 L 349.5,116.7 L 349.7,117.5 L 353.3,116.3 L 351.0,114.9 L 353.4,114.9 L 353.6,113.6 L 347.8,113.6 L 348.7,111.7 L 342.8,111.1 L 349.8,107.2 L 344.3,107.8 L 344.7,106.6 L 347.5,106.4 L 349.1,104.7 L 360.4,105.4 L 360.4,100.6 L 349.0,97.4 L 347.4,98.8 L 351.7,103.0 L 348.9,103.5 L 345.5,102.0 L 346.0,100.1 L 337.7,99.8 L 338.0,97.2 L 333.1,98.2 L 324.8,97.1 L 320.5,99.3 L 319.7,102.6 L 316.9,102.9 L 314.0,101.5 L 302.4,101.5 L 300.8,100.2 L 304.1,99.3 L 296.7,96.9 L 296.7,94.7 L 299.9,93.6 L 302.7,94.5 L 302.9,92.2 L 306.0,90.7 L 295.0,91.2 L 284.4,85.4 L 288.3,79.1 L 286.2,77.1 L 293.6,76.1 L 292.7,72.5 L 295.2,70.3 L 294.9,68.9 L 290.9,69.5 L 284.6,68.6 L 287.0,66.6 L 285.6,64.0 L 288.0,63.2 L 291.7,63.9 L 295.9,66.1 L 307.1,66.8 L 313.7,66.0 L 313.1,67.1 L 317.1,67.2 L 324.7,62.0 L 322.5,60.8 L 326.0,59.8 L 323.8,57.4 L 321.4,57.3 L 325.7,55.4 L 320.7,54.2 L 320.2,52.5 L 315.1,52.7 L 311.9,47.9 L 305.9,45.1 L 311.7,44.9 L 311.7,38.9 L 317.1,37.8 L 321.1,39.1 L 321.8,37.5 L 316.7,36.2 L 316.8,34.8 L 313.6,34.6 L 315.3,30.3 L 311.2,29.8 L 311.9,28.9 L 317.3,26.2 L 327.6,24.4 L 361.4,25.8 L 359.4,18.6 L 361.4,17.6 L 359.0,17.1 L 358.6,15.2 L 361.6,12.2 L 359.2,12.2 L 359.0,11.0 L 360.5,10.1 L 363.8,10.5 L 366.5,8.9 L 370.1,9.3 L 369.7,7.0 L 358.9,5.2 L 351.9,6.0 L 344.5,5.2 L 338.2,4.1 L 332.8,1.2 L 338.8,1.0 L 339.3,0.2 L 346.5,0.5 L 347.4,-0.6 L 351.7,-1.0 L 349.0,-3.1 L 356.6,-4.4 L 355.2,-5.3 L 357.5,-6.8 L 353.3,-6.4 L 351.7,-7.6 L 356.9,-8.4 L 357.3,-9.7 L 353.7,-9.5 L 352.4,-10.0 L 353.8,-13.0 L 357.6,-13.0 L 355.3,-18.6 L 360.3,-23.1 L 356.3,-27.5 L 346.0,-29.6 L 346.9,-31.3 L 350.1,-31.9 L 347.7,-32.5 L 355.7,-35.1 L 353.6,-35.6 L 355.2,-39.3 L 358.3,-38.5 L 363.1,-39.2 L 363.9,-40.8 L 361.3,-41.9 L 367.8,-41.9 L 367.8,-43.0 L 371.8,-42.6 L 376.1,-45.3 L 376.2,-44.1 L 379.4,-43.9 L 379.8,-44.9 L 370.0,-46.5 L 369.7,-47.9 L 365.2,-47.3 L 362.9,-48.4 L 360.7,-46.9 L 354.2,-48.8 L 355.1,-53.8 L 367.1,-56.2 L 367.1,-57.0 L 360.7,-57.9 L 362.9,-59.8 L 365.6,-59.4 L 367.9,-61.9 L 370.2,-61.8 L 368.9,-63.4 L 372.2,-63.2 L 372.8,-65.7 L 375.4,-65.3 L 376.0,-66.1 L 375.3,-67.4 L 369.1,-68.0 L 364.9,-70.0 L 370.2,-71.7 L 370.0,-74.5 L 366.5,-76.3 L 370.8,-80.2 L 361.3,-81.4 L 361.2,-80.2 L 356.4,-79.3 L 353.6,-81.5 L 346.2,-81.3 L 351.2,-85.2 L 346.9,-85.5 L 346.2,-87.8 L 344.1,-87.0 L 341.5,-88.1 L 333.4,-86.1 L 333.9,-84.2 L 329.0,-81.7 L 330.5,-80.1 L 326.6,-80.3 L 324.2,-77.3 L 318.6,-76.4 L 320.1,-74.5 L 315.2,-74.3 L 312.0,-75.7 L 308.7,-74.7 L 307.6,-76.0 L 303.6,-76.0 L 300.4,-72.8 L 305.1,-71.9 L 302.9,-71.2 L 303.7,-69.3 L 299.8,-69.1 L 298.9,-67.9 L 300.2,-63.7 L 288.7,-61.7 L 281.8,-63.0 L 281.7,-61.1 L 287.0,-59.7 L 284.1,-57.9 L 279.2,-57.6 L 280.6,-55.7 L 277.7,-55.2 L 276.8,-53.1 L 274.0,-53.4 L 269.0,-57.2 L 265.6,-54.3 L 264.6,-56.7 L 259.5,-56.7 L 259.6,-54.7 L 255.8,-54.7 L 256.1,-52.2 L 249.9,-51.5 L 248.9,-49.7 L 239.8,-49.4 L 243.5,-45.9 L 241.3,-44.7 L 244.3,-44.6 L 239.7,-43.7 L 240.0,-42.0 L 243.9,-42.1 L 243.1,-39.5 L 247.8,-39.2 L 245.1,-36.7 L 242.1,-36.6 L 241.2,-38.5 L 234.1,-37.6 L 230.6,-39.5 L 223.2,-38.4 L 223.9,-36.0 L 222.4,-38.0 L 218.0,-39.2 L 213.9,-37.4 L 211.9,-38.5 L 207.2,-38.4 L 198.6,-37.0 L 194.5,-38.5 L 193.8,-41.3 L 191.4,-39.9 L 187.4,-41.5 L 186.6,-39.3 L 184.4,-39.1 L 178.3,-41.4 L 173.9,-40.9 L 172.4,-43.0 L 168.0,-44.0 L 166.0,-40.1 L 161.9,-39.7 L 162.6,-38.3 L 165.6,-38.0 L 165.0,-36.2 L 170.5,-34.3 L 170.9,-32.2 L 167.2,-30.3 L 169.8,-27.7 L 172.0,-27.7 L 172.5,-25.4 L 168.8,-24.2 L 171.7,-24.2 L 171.8,-20.8 L 165.4,-21.2 L 165.3,-22.7 L 161.8,-22.9 L 161.3,-21.0 L 153.2,-20.0 L 150.7,-22.0 L 146.9,-21.0 L 143.2,-21.6 L 131.6,-20.5 L 131.9,-17.1 L 124.9,-15.4 L 121.6,-15.5 L 122.3,-16.9 L 116.9,-16.9 L 112.1,-20.3 L 105.5,-19.3 L 102.1,-20.3 L 99.2,-20.1 L 99.2,-19.2 L 95.8,-20.0 L 94.8,-19.3 L 99.1,-18.4 L 98.8,-17.1 L 92.7,-16.3 L 94.6,-12.3 L 87.4,-12.3 L 71.1,-9.7 L 70.9,-8.0 L 67.2,-6.2 L 70.7,-4.8 L 65.8,-5.0 L 64.7,-3.5 L 58.5,-2.4 L 56.0,-6.1 L 50.3,-5.9 L 48.2,-7.4 L 48.0,-4.8 L 40.8,-3.7 L 39.1,-1.3 L 36.7,-2.7 L 32.5,-2.5 L 31.5,-0.2 L 27.8,-2.2 L 28.6,-0.2 L 25.5,0.1 L 26.8,0.9 L 29.9,-0.2 L 29.8,1.7 L 34.2,2.0 L 34.5,4.4 L 37.4,4.3 L 36.4,6.0 L 34.6,4.8 L 32.6,5.4 L 32.6,7.8 L 35.2,9.1 L 33.4,10.3 L 36.1,10.1 L 35.6,9.3 L 38.4,10.7 L 42.6,9.8 L 43.0,10.9 L 49.4,11.2 L 52.2,13.9 L 49.4,15.9 L 49.7,18.4 L 44.0,17.5 L 37.2,20.1 L 39.2,20.9 L 44.2,19.8 L 47.7,20.6 L 39.8,26.8 L 41.8,29.0 L 37.9,27.3 L 34.8,29.0 L 39.4,29.3 L 37.8,32.1 L 29.4,34.1 L 24.5,34.0 L 24.0,32.1 L 21.5,32.3 L 12.6,35.1 L 12.9,36.9 L 9.1,37.2 Z" class="state" data-state="IN-KA"/><path d="M -33.4,34.8 L -27.0,39.7 L -24.0,45.2 L -19.1,45.4 L -21.8,46.7 L -10.6,48.7 L -6.5,47.9 L -6.2,49.1 L -12.9,49.7 L -22.3,49.0 L -16.3,51.3 L -12.9,50.8 L -10.8,52.6 L -5.2,61.0 L -9.0,63.7 L -3.5,64.5 L -1.1,66.6 L 2.7,67.2 L 4.5,71.2 L 6.9,71.7 L 16.7,71.5 L 16.8,69.4 L 20.7,70.9 L 24.3,69.0 L 26.0,69.4 L 26.1,67.6 L 30.5,65.6 L 28.0,63.1 L 29.2,61.0 L 32.7,59.2 L 31.0,57.4 L 25.9,55.9 L 34.6,54.2 L 33.2,51.0 L 28.4,49.9 L 25.8,45.4 L 29.1,43.6 L 25.2,42.0 L 27.2,39.8 L 25.1,39.3 L 25.8,37.9 L 23.0,37.4 L 21.1,38.2 L 18.6,36.8 L 16.9,38.1 L -0.9,40.0 L -4.0,38.6 L -6.3,34.1 L -12.8,33.7 L -14.8,31.5 L -18.2,34.2 L -33.4,34.8 Z" class="state" data-state="IN-GA"/><path d="M 158.0,216.3 L 166.4,226.0 L 173.1,227.3 L 179.8,233.2 L 189.4,243.7 L 196.5,256.8 L 216.0,275.3 L 230.5,293.3 L 240.7,319.1 L 258.9,336.7 L 261.8,341.7 L 270.7,344.8 L 306.5,365.3 L 318.6,369.3 L 323.8,367.6 L 326.6,368.1 L 324.1,365.2 L 331.9,362.4 L 329.3,360.0 L 335.5,359.7 L 337.8,357.9 L 326.1,349.1 L 332.2,347.2 L 335.7,344.6 L 335.1,343.1 L 331.3,340.8 L 328.4,340.8 L 328.8,339.5 L 323.7,336.5 L 328.9,335.4 L 330.4,333.0 L 336.1,330.6 L 334.5,329.0 L 337.6,327.7 L 337.7,323.9 L 339.4,322.3 L 342.0,322.3 L 344.5,317.6 L 348.9,316.8 L 351.0,314.6 L 346.2,313.4 L 345.7,310.4 L 343.5,311.7 L 341.3,310.4 L 336.3,311.7 L 330.1,309.9 L 325.6,309.9 L 331.6,304.6 L 331.5,302.0 L 334.0,301.6 L 331.4,300.5 L 333.0,299.2 L 331.0,296.8 L 336.6,294.1 L 335.7,291.2 L 329.3,287.7 L 336.1,287.0 L 338.9,282.7 L 335.2,282.1 L 332.8,276.6 L 326.7,276.4 L 318.0,278.3 L 306.9,282.6 L 299.5,282.0 L 295.5,279.1 L 293.0,279.7 L 291.1,278.9 L 293.0,276.0 L 289.6,273.5 L 292.4,268.3 L 292.0,265.7 L 289.0,264.4 L 296.4,263.7 L 294.9,261.3 L 299.0,257.2 L 298.4,256.1 L 293.0,255.6 L 290.9,253.2 L 273.5,250.6 L 277.7,246.3 L 284.6,246.2 L 288.1,245.1 L 282.5,244.9 L 282.7,241.4 L 277.7,240.6 L 281.3,237.7 L 278.3,236.7 L 270.4,238.8 L 260.6,239.1 L 256.7,238.0 L 252.9,239.1 L 250.8,238.5 L 252.3,236.7 L 261.8,234.0 L 262.1,231.3 L 258.0,231.6 L 259.0,230.8 L 253.1,230.0 L 248.8,227.6 L 240.9,226.5 L 239.2,227.1 L 235.0,225.8 L 231.1,226.4 L 229.8,221.8 L 234.4,220.5 L 236.8,221.8 L 251.3,218.5 L 247.2,215.6 L 249.7,214.8 L 248.3,213.3 L 240.7,214.2 L 234.5,210.9 L 228.7,211.1 L 225.3,208.3 L 218.1,209.2 L 217.3,203.5 L 206.0,205.6 L 191.2,204.3 L 185.3,200.8 L 185.4,198.9 L 176.4,199.3 L 175.2,197.6 L 170.9,198.1 L 168.3,195.8 L 163.8,195.9 L 157.6,193.5 L 152.7,189.5 L 145.4,189.5 L 147.3,188.6 L 145.1,186.9 L 146.3,185.7 L 141.2,184.5 L 140.5,181.9 L 145.4,181.9 L 145.8,180.1 L 142.1,179.9 L 137.5,181.6 L 137.0,180.0 L 131.0,178.3 L 130.8,176.8 L 135.2,176.7 L 136.4,175.8 L 131.2,174.6 L 125.5,176.9 L 123.6,174.2 L 119.4,174.6 L 117.0,173.5 L 118.5,171.8 L 111.6,170.8 L 111.6,172.2 L 107.7,172.5 L 108.0,170.1 L 103.0,170.3 L 104.0,169.7 L 101.1,169.3 L 103.8,168.0 L 103.2,166.9 L 89.3,168.3 L 95.5,175.0 L 96.9,173.8 L 97.7,173.9 L 95.9,174.8 L 96.6,175.7 L 96.9,175.2 L 97.3,175.1 L 98.1,175.3 L 96.5,175.9 L 98.1,177.7 L 98.4,177.7 L 98.1,177.4 L 98.7,177.0 L 99.5,177.0 L 100.2,176.8 L 100.4,176.8 L 98.5,178.2 L 123.6,202.2 L 126.3,201.4 L 128.7,202.1 L 139.5,208.8 L 142.6,209.0 L 158.0,216.3 Z M 158.2,213.2 L 160.0,215.0 L 157.5,215.6 L 157.0,214.8 L 158.2,213.2 Z" class="state" data-state="IN-KL"/><text x="226.3" y="99.0" class="state-label">KARNATAKA</text><text x="534.9" y="63.0" class="state-label">ANDHRA</text><text x="534.9" y="75.0" class="state-label">PRADESH</text><text x="555.4" y="-22.5" class="state-label">TELANGANA</text><text x="216.0" y="270.0" class="state-label">KERALA</text><text x="452.6" y="229.5" class="state-label">TAMIL NADU</text><text x="51.4" y="202.5" class="state-label">Arabian Sea</text><text x="658.3" y="202.5" class="state-label">Bay of Bengal</text></g>
</svg>